<svg width="128" height="128" viewBox="0 0 128 128" fill="none" xmlns="http://www.w3.org/2000/svg">
<defs><linearGradient id="acid" x1="24" y1="18" x2="104" y2="110" gradientUnits="userSpaceOnUse"><stop stop-color="#C7FF5A"/><stop offset="1" stop-color="#8CFF00"/></linearGradient></defs>
<path d="M64 7L108 32V82L64 107L20 82V32L64 7Z" stroke="url(#acid)" stroke-width="5" stroke-linejoin="round"/>
<path d="M64 34V25M59 25H69" stroke="url(#acid)" stroke-width="5" stroke-linecap="round"/>
<rect x="37" y="35" width="54" height="43" rx="15" stroke="url(#acid)" stroke-width="5"/>
<path d="M31 48V65M97 48V65M31 52H37M91 52H97" stroke="url(#acid)" stroke-width="5" stroke-linecap="round"/>
<circle cx="53" cy="56" r="4.5" fill="url(#acid)"/><circle cx="75" cy="56" r="4.5" fill="url(#acid)"/>
<path d="M51 67C57 73 71 73 77 67" stroke="url(#acid)" stroke-width="4" stroke-linecap="round"/>
<path d="M56 78V88M72 78V88M47 92H81" stroke="url(#acid)" stroke-width="5" stroke-linecap="round"/>
<path d="M103 20V31M97.5 25.5H108.5" stroke="url(#acid)" stroke-width="4" stroke-linecap="round"/>
<path d="M111 42V50M107 46H115" stroke="url(#acid)" stroke-width="3.5" stroke-linecap="round"/>
</svg>
